<svg xmlns="http://www.w3.org/2000/svg" xmlns:xlink="http://www.w3.org/1999/xlink" version="1.1" width="1000" height="1000" viewBox="0 0 1000 1000" xml:space="preserve">
<desc>Created with Fabric.js 3.5.0</desc>
<defs>
</defs>
<rect x="0" y="0" width="100%" height="100%" fill="#ffffff"/>
<g transform="matrix(0.9091 0 0 0.4476 500.0045 500.0156)" id="909628">
<g style="" vector-effect="non-scaling-stroke">
		<g transform="matrix(1 0 0 1 0 0)">
<rect style="stroke: none; stroke-width: 1; stroke-dasharray: none; stroke-linecap: butt; stroke-dashoffset: 0; stroke-linejoin: miter; stroke-miterlimit: 4; is-custom-font: none; font-file-url: none; fill: rgb(75,145,241); fill-rule: nonzero; opacity: 1;" x="-500" y="-500" rx="0" ry="0" width="1000" height="1000"/>
</g>
		<g transform="matrix(2.1829 0 0 2.1829 -55.312 0.0315)" id="text-0">
<path style="stroke: none; stroke-width: 1; stroke-dasharray: none; stroke-linecap: butt; stroke-dashoffset: 0; stroke-linejoin: miter; stroke-miterlimit: 4; is-custom-font: none; font-file-url: none; fill: rgb(255,255,255); fill-rule: nonzero; opacity: 1;" transform=" translate(-136.84, 12.75)" d="M 3.9 -26.35 L 3.9 -26.35 Q 3.9 -31.2 6.35 -33.35 Q 8.8 -35.5 14.3 -35.5 L 14.3 -35.5 Q 18.15 -35.5 20.5 -33.5 Q 22.85 -31.5 23.9 -27.4 L 23.9 -27.4 L 19.25 -23.9 L 16.8 -23.9 L 22.2 -27.95 Q 21.15 -31.3 19.18 -32.65 Q 17.2 -34 14.3 -34 L 14.3 -34 Q 12.3 -34 10.93 -33.75 Q 9.55 -33.5 8.18 -32.77 Q 6.8 -32.05 6.1 -30.45 Q 5.4 -28.85 5.4 -26.35 L 5.4 -26.35 Q 5.4 -24.15 7.43 -22.45 Q 9.45 -20.75 12.35 -19.55 Q 15.25 -18.35 18.18 -17.1 Q 21.1 -15.85 23.13 -13.9 Q 25.15 -11.95 25.15 -9.4 L 25.15 -9.4 Q 25.15 -4.4 22.68 -1.95 Q 20.2 0.5 14.2 0.5 L 14.2 0.5 Q 9.3 0.5 6.5 -1.48 Q 3.7 -3.45 2.65 -7.6 L 2.65 -7.6 L 4.05 -8.2 Q 5.05 -4.15 7.48 -2.58 Q 9.9 -1 14.2 -1 L 14.2 -1 Q 19 -1 21.33 -2.85 Q 23.65 -4.7 23.65 -9.4 L 23.65 -9.4 Q 23.65 -11.6 21.63 -13.3 Q 19.6 -15 16.68 -16.2 Q 13.75 -17.4 10.85 -18.65 Q 7.95 -19.9 5.93 -21.85 Q 3.9 -23.8 3.9 -26.35 Z M 50.8 -29 L 50.8 0 L 49.3 0 L 49.3 -14.5 L 34.3 -14.5 L 34.3 0 L 32.8 0 L 32.8 -29 L 34.3 -29 L 34.3 -16 L 49.3 -16 L 49.3 -29 L 50.8 -29 Z M 74.9 -27.48 Q 73.2 -28 70.7 -28 Q 68.2 -28 66.5 -27.48 Q 64.8 -26.95 63.37 -25.53 Q 61.95 -24.1 61.25 -21.38 Q 60.55 -18.65 60.55 -14.5 Q 60.55 -10.35 61.25 -7.63 Q 61.95 -4.9 63.37 -3.48 Q 64.8 -2.05 66.5 -1.53 Q 68.2 -1 70.7 -1 Q 73.2 -1 74.9 -1.53 Q 76.59 -2.05 78.02 -3.48 Q 79.45 -4.9 80.15 -7.63 Q 80.84 -10.35 80.84 -14.5 Q 80.84 -18.65 80.15 -21.38 Q 79.45 -24.1 78.02 -25.53 Q 76.59 -26.95 74.9 -27.48 Z M 79.65 -3.05 Q 76.95 0.5 70.7 0.5 Q 64.45 0.5 61.75 -3.05 Q 59.05 -6.6 59.05 -14.5 Q 59.05 -22.4 61.75 -25.95 Q 64.45 -29.5 70.7 -29.5 Q 76.95 -29.5 79.65 -25.95 Q 82.34 -22.4 82.34 -14.5 Q 82.34 -6.6 79.65 -3.05 Z M 105.79 -12.4 L 102.99 -10.8 L 102.24 -12.1 L 105.04 -13.7 Q 108.49 -15.6 108.49 -19.75 L 108.49 -19.75 Q 108.49 -27.5 96.69 -27.5 L 96.69 -27.5 L 92.09 -27.5 L 92.09 10 L 90.59 10 L 90.59 -29 L 96.69 -29 Q 103.29 -29 106.64 -26.58 Q 109.99 -24.15 109.99 -19.75 L 109.99 -19.75 Q 109.99 -14.75 105.79 -12.4 L 105.79 -12.4 Z M 149.44 -33.5 L 118.14 -33.5 L 118.14 -35 L 151.59 -35 L 138.84 0.05 L 132.34 -17.75 L 125.89 0.05 L 113.14 -35 L 114.74 -35 L 125.89 -4.35 L 132.34 -22.15 L 138.84 -4.35 L 149.44 -33.5 Z M 157.19 0 L 157.19 -29 L 158.69 -29 L 158.69 0 L 157.19 0 Z M 164.44 -29 L 186.94 -29 L 186.94 -27.5 L 176.44 -27.5 L 176.44 0 L 174.94 0 L 174.94 -27.5 L 164.44 -27.5 L 164.44 -29 Z M 210.68 -29 L 210.68 0 L 209.18 0 L 209.18 -14.5 L 194.18 -14.5 L 194.18 0 L 192.68 0 L 192.68 -29 L 194.18 -29 L 194.18 -16 L 209.18 -16 L 209.18 -29 L 210.68 -29 Z M 224.08 -33.5 L 224.08 -35 L 243.23 -35 L 243.23 -15.05 Q 243.23 -7.05 240.48 -3.28 Q 237.73 0.5 231.58 0.5 Q 225.43 0.5 222.68 -3.28 Q 219.93 -7.05 219.93 -15.05 L 219.93 -15.05 L 219.93 -35 L 221.43 -35 L 221.43 -15.05 Q 221.43 -10.9 222.13 -8.08 Q 222.83 -5.25 224.23 -3.75 Q 225.63 -2.25 227.38 -1.63 Q 229.13 -1 231.58 -1 Q 234.03 -1 235.78 -1.63 Q 237.53 -2.25 238.93 -3.75 Q 240.33 -5.25 241.03 -8.08 Q 241.73 -10.9 241.73 -15.05 L 241.73 -15.05 L 241.73 -33.5 L 224.08 -33.5 Z M 260.13 -29.6 L 260.13 -29.6 Q 266.33 -29.6 268.93 -26.85 L 268.93 -26.85 L 267.93 -25.75 Q 265.53 -28.1 260.33 -28.1 L 260.33 -28.1 Q 252.53 -28.1 252.53 -21.9 L 252.53 -21.9 Q 252.53 -19.5 254.43 -18.07 Q 256.33 -16.65 259.05 -15.9 Q 261.78 -15.15 264.5 -14.33 Q 267.23 -13.5 269.13 -11.68 Q 271.03 -9.85 271.03 -6.9 L 271.03 -6.9 Q 271.03 -3.45 268.18 -1.4 Q 265.33 0.65 259.93 0.65 L 259.93 0.65 Q 257.28 0.65 254.7 -0.05 Q 252.13 -0.75 250.88 -2.1 L 250.88 -2.1 L 251.88 -3.2 Q 254.43 -0.85 259.73 -0.85 L 259.73 -0.85 Q 264.58 -0.85 267.05 -2.65 Q 269.53 -4.45 269.53 -6.85 L 269.53 -6.85 Q 269.53 -9.35 267.63 -10.9 Q 265.73 -12.45 263 -13.23 Q 260.28 -14 257.55 -14.83 Q 254.83 -15.65 252.93 -17.4 Q 251.03 -19.15 251.03 -22 L 251.03 -22 Q 251.03 -25.85 253.6 -27.73 Q 256.18 -29.6 260.13 -29.6 Z" stroke-linecap="round"/>
</g>
		<g transform="matrix(1.5251 0 0 1.5251 304.2445 0.0294)" id="icon-0">
<path style="stroke: none; stroke-width: 1; stroke-dasharray: none; stroke-linecap: butt; stroke-dashoffset: 0; stroke-linejoin: miter; stroke-miterlimit: 4; is-custom-font: none; font-file-url: none; fill: rgb(255,255,255); fill-rule: nonzero; opacity: 1;" transform=" translate(-50, -50)" d="M 50 5 C 34.362 5 21.685 17.677 21.685 33.315 c 0 4.49 1.045 8.735 2.905 12.507 l 0.279 0.583 L 49.995 95 l 24.913 -48.184 l 0.14 -0.286 c 2.086 -3.945 3.267 -8.443 3.267 -13.216 C 78.315 17.677 65.638 5 50 5 z M 37.366 32.383 c -0.537 -0.595 -0.864 -1.382 -0.864 -2.242 v -6.813 c 0 -1.845 1.51 -3.355 3.355 -3.355 h 6.813 c 0.861 0 1.648 0.328 2.244 0.866 l 14.251 14.217 c 0.435 0.435 0.435 1.147 0 1.582 l -9.987 9.987 c -0.435 0.435 -1.147 0.435 -1.582 0 L 37.366 32.383 z M 45.683 26.154 c 0 1.719 -1.393 3.112 -3.112 3.112 c -1.719 0 -3.112 -1.393 -3.112 -3.112 s 1.393 -3.112 3.112 -3.112 C 44.289 23.041 45.683 24.435 45.683 26.154 z" stroke-linecap="round"/>
</g>
		<g transform="matrix(1.759 0 0 1.759 -0.4192 0.0327)" id="tight-bounds">
<rect style="stroke: none; stroke-width: 1; stroke-dasharray: none; stroke-linecap: butt; stroke-dashoffset: 0; stroke-linejoin: miter; stroke-miterlimit: 4; is-custom-font: none; font-file-url: none; fill: none; fill-rule: nonzero; opacity: 1;" x="-197.76" y="-39.01805" rx="0" ry="0" width="395.52" height="78.0361"/>
</g>
</g>
</g>
</svg>